<mxfile host="app.diagrams.net" modified="2022-01-24T07:04:12.406Z" agent="5.0 (Macintosh; Intel Mac OS X 10_15_7) AppleWebKit/537.36 (KHTML, like Gecko) Chrome/97.0.4692.71 Safari/537.36" etag="qSqzCQktQKKJLmt3C3em" version="16.4.5" type="github">
  <diagram id="kgpKYQtTHZ0yAKxKKP6v" name="Page-1">
    <mxGraphModel dx="946" dy="504" grid="1" gridSize="10" guides="1" tooltips="1" connect="1" arrows="1" fold="1" page="1" pageScale="1" pageWidth="850" pageHeight="1100" math="0" shadow="0">
      <root>
        <mxCell id="0" />
        <mxCell id="1" parent="0" />
        <mxCell id="3nuBFxr9cyL0pnOWT2aG-1" value="開催者" style="shape=umlLifeline;perimeter=lifelinePerimeter;container=1;collapsible=0;recursiveResize=0;rounded=0;shadow=0;strokeWidth=1;" parent="1" vertex="1">
          <mxGeometry x="80" y="40" width="100" height="300" as="geometry" />
        </mxCell>
        <mxCell id="3nuBFxr9cyL0pnOWT2aG-2" value="" style="points=[];perimeter=orthogonalPerimeter;rounded=0;shadow=0;strokeWidth=1;" parent="3nuBFxr9cyL0pnOWT2aG-1" vertex="1">
          <mxGeometry x="45" y="70" width="10" height="190" as="geometry" />
        </mxCell>
        <mxCell id="3nuBFxr9cyL0pnOWT2aG-3" value="大会終了" style="verticalAlign=bottom;startArrow=oval;endArrow=block;startSize=8;shadow=0;strokeWidth=1;" parent="3nuBFxr9cyL0pnOWT2aG-1" target="3nuBFxr9cyL0pnOWT2aG-2" edge="1">
          <mxGeometry relative="1" as="geometry">
            <mxPoint x="-15" y="70" as="sourcePoint" />
          </mxGeometry>
        </mxCell>
        <mxCell id="3nuBFxr9cyL0pnOWT2aG-5" value="コントラクト" style="shape=umlLifeline;perimeter=lifelinePerimeter;container=1;collapsible=0;recursiveResize=0;rounded=0;shadow=0;strokeWidth=1;" parent="1" vertex="1">
          <mxGeometry x="260" y="40" width="100" height="300" as="geometry" />
        </mxCell>
        <mxCell id="3nuBFxr9cyL0pnOWT2aG-6" value="" style="points=[];perimeter=orthogonalPerimeter;rounded=0;shadow=0;strokeWidth=1;" parent="3nuBFxr9cyL0pnOWT2aG-5" vertex="1">
          <mxGeometry x="45" y="77.5" width="10" height="165" as="geometry" />
        </mxCell>
        <mxCell id="3nuBFxr9cyL0pnOWT2aG-7" value="return" style="verticalAlign=bottom;endArrow=open;dashed=1;endSize=8;exitX=0;exitY=0.95;shadow=0;strokeWidth=1;" parent="1" source="3nuBFxr9cyL0pnOWT2aG-6" target="3nuBFxr9cyL0pnOWT2aG-2" edge="1">
          <mxGeometry relative="1" as="geometry">
            <mxPoint x="275" y="236" as="targetPoint" />
          </mxGeometry>
        </mxCell>
        <mxCell id="3nuBFxr9cyL0pnOWT2aG-8" value="順位提示" style="verticalAlign=bottom;endArrow=block;shadow=0;strokeWidth=1;exitX=0.9;exitY=0.111;exitDx=0;exitDy=0;exitPerimeter=0;entryX=0;entryY=0.082;entryDx=0;entryDy=0;entryPerimeter=0;" parent="1" source="3nuBFxr9cyL0pnOWT2aG-2" target="3nuBFxr9cyL0pnOWT2aG-6" edge="1">
          <mxGeometry relative="1" as="geometry">
            <mxPoint x="140" y="130" as="sourcePoint" />
            <mxPoint x="280" y="130" as="targetPoint" />
            <Array as="points" />
          </mxGeometry>
        </mxCell>
        <mxCell id="3nuBFxr9cyL0pnOWT2aG-10" value="return" style="verticalAlign=bottom;endArrow=open;dashed=1;endSize=8;exitX=1;exitY=0.95;shadow=0;strokeWidth=1;" parent="1" target="3nuBFxr9cyL0pnOWT2aG-6" edge="1">
          <mxGeometry relative="1" as="geometry">
            <mxPoint x="240" y="257" as="targetPoint" />
            <mxPoint x="140" y="236" as="sourcePoint" />
          </mxGeometry>
        </mxCell>
        <mxCell id="i4BUAlpTCJYqPONG22If-1" value="判定&#xa;ステーカー" style="shape=umlLifeline;perimeter=lifelinePerimeter;container=1;collapsible=0;recursiveResize=0;rounded=0;shadow=0;strokeWidth=1;" vertex="1" parent="1">
          <mxGeometry x="450" y="40" width="100" height="300" as="geometry" />
        </mxCell>
        <mxCell id="i4BUAlpTCJYqPONG22If-2" value="" style="points=[];perimeter=orthogonalPerimeter;rounded=0;shadow=0;strokeWidth=1;" vertex="1" parent="i4BUAlpTCJYqPONG22If-1">
          <mxGeometry x="45" y="100" width="10" height="139" as="geometry" />
        </mxCell>
        <mxCell id="i4BUAlpTCJYqPONG22If-3" value="判定者" style="shape=umlLifeline;perimeter=lifelinePerimeter;container=1;collapsible=0;recursiveResize=0;rounded=0;shadow=0;strokeWidth=1;" vertex="1" parent="1">
          <mxGeometry x="630" y="40" width="100" height="300" as="geometry" />
        </mxCell>
        <mxCell id="i4BUAlpTCJYqPONG22If-4" value="" style="points=[];perimeter=orthogonalPerimeter;rounded=0;shadow=0;strokeWidth=1;" vertex="1" parent="i4BUAlpTCJYqPONG22If-3">
          <mxGeometry x="45" y="80" width="10" height="160" as="geometry" />
        </mxCell>
        <mxCell id="i4BUAlpTCJYqPONG22If-5" value="ステーカーから&#xa;ランダムにn人抽出" style="verticalAlign=bottom;endArrow=block;shadow=0;strokeWidth=1;exitX=1.3;exitY=0.221;exitDx=0;exitDy=0;exitPerimeter=0;entryX=0;entryY=0.101;entryDx=0;entryDy=0;entryPerimeter=0;" edge="1" parent="1" source="3nuBFxr9cyL0pnOWT2aG-6" target="i4BUAlpTCJYqPONG22If-2">
          <mxGeometry relative="1" as="geometry">
            <mxPoint x="355" y="140" as="sourcePoint" />
            <mxPoint x="530" y="140" as="targetPoint" />
            <Array as="points" />
          </mxGeometry>
        </mxCell>
      </root>
    </mxGraphModel>
  </diagram>
</mxfile>
